<?xml version="1.0" standalone="no"?>
<!DOCTYPE svg PUBLIC "-//W3C//DTD SVG 20010904//EN"
 "http://www.w3.org/TR/2001/REC-SVG-20010904/DTD/svg10.dtd">
<svg version="1.0" xmlns="http://www.w3.org/2000/svg"
 width="2646.000000pt" height="1906.000000pt" viewBox="0 0 2646.000000 1906.000000"
 preserveAspectRatio="xMidYMid meet">
<metadata>
Created by potrace 1.16, written by Peter Selinger 2001-2019
</metadata>
<g transform="translate(0.000000,1906.000000) scale(0.100000,-0.100000)"
fill="#000000" stroke="none">
<path d="M12733 11073 l-52 -48 -68 24 c-95 33 -303 41 -424 17 -158 -32 -317
-112 -436 -220 -64 -58 -144 -176 -169 -248 -26 -75 -25 -190 3 -244 31 -58
93 -110 154 -128 127 -38 224 -7 548 173 283 158 465 240 588 266 30 6 32 4
42 -32 64 -223 3 -483 -150 -643 -130 -135 -299 -190 -484 -155 -49 9 -93 19
-98 22 -4 2 7 21 25 41 55 61 126 184 205 353 41 89 73 163 71 164 -2 2 -45
-19 -96 -47 -92 -50 -93 -50 -127 -121 -47 -100 -146 -264 -187 -310 l-33 -39
-64 17 c-152 39 -259 29 -318 -30 -37 -37 -43 -77 -18 -124 40 -79 232 -82
387 -6 l67 32 98 -25 c138 -35 345 -37 448 -5 158 50 279 153 350 297 62 125
78 208 72 371 -4 104 -10 144 -30 202 l-25 72 97 18 c69 13 143 18 266 18 155
0 175 -2 228 -24 112 -44 167 -117 167 -221 0 -74 -26 -125 -90 -183 -56 -51
-205 -129 -283 -149 -44 -11 -51 -10 -102 15 -60 29 -94 33 -128 16 -30 -16
-37 -28 -37 -66 0 -40 35 -69 93 -78 93 -14 98 -16 112 -48 10 -24 10 -48 3
-100 l-10 -68 -92 -73 c-50 -41 -144 -125 -209 -186 l-118 -113 -16 24 c-33
50 -140 146 -188 169 -33 16 -73 26 -118 28 -57 4 -75 0 -121 -22 -99 -48
-140 -126 -134 -256 4 -116 42 -193 141 -291 l72 -71 -50 -46 c-175 -159 -304
-219 -454 -210 -210 12 -360 180 -316 352 42 162 291 211 420 82 53 -53 77
-121 85 -237 l5 -85 67 43 66 43 -14 52 c-58 220 -234 350 -455 335 -117 -8
-211 -65 -256 -156 -28 -57 -30 -183 -4 -253 42 -110 134 -196 259 -240 71
-25 208 -34 283 -19 113 24 243 101 371 220 l76 72 111 -62 c219 -120 343
-163 466 -162 75 0 127 17 181 58 27 21 32 31 32 70 1 25 0 45 -3 45 -2 0 -31
-16 -65 -36 -72 -43 -133 -52 -138 -19 -1 11 22 99 51 195 90 290 176 615 165
626 -2 2 -37 -23 -78 -54 l-74 -57 -38 -130 c-21 -71 -61 -199 -89 -284 l-52
-154 -42 130 c-23 71 -53 149 -65 173 l-23 45 129 123 c290 279 438 367 532
318 49 -25 66 -68 65 -161 -2 -107 -35 -229 -135 -494 -44 -118 -82 -231 -85
-250 -3 -25 3 -50 19 -81 77 -150 262 -109 412 91 47 62 146 249 146 275 0 8
4 14 9 14 4 0 11 -51 14 -112 9 -189 65 -313 154 -337 83 -23 201 27 288 121
162 175 251 502 201 739 -31 145 -117 275 -351 528 -77 83 -155 174 -175 202
-31 45 -35 58 -35 114 0 59 3 67 33 98 42 43 103 62 181 54 162 -14 304 -151
377 -364 55 -159 54 -306 -1 -387 l-21 -31 27 -61 c15 -33 34 -92 42 -130 l14
-69 30 80 c49 127 56 177 50 331 -6 159 -22 232 -78 352 -143 310 -417 469
-639 371 -94 -42 -140 -111 -140 -213 0 -123 44 -201 230 -412 60 -67 137
-160 170 -204 188 -254 213 -487 81 -765 -74 -155 -153 -229 -241 -223 -45 3
-45 3 -65 58 -19 51 -20 78 -18 390 0 184 5 385 10 445 5 61 9 111 9 112 -1 1
-26 -2 -56 -5 l-55 -7 -8 -80 c-40 -412 -142 -681 -332 -872 -61 -61 -99 -81
-131 -69 -30 12 -11 93 70 293 103 258 129 357 124 488 -3 78 -9 109 -26 142
-55 106 -188 155 -318 117 -20 -5 -22 -1 -26 53 -3 32 -8 65 -12 74 -5 12 4
20 41 34 77 28 208 100 272 149 91 70 147 150 162 230 9 52 -6 157 -30 204
-25 49 -101 119 -155 143 -133 59 -365 68 -616 25 l-145 -25 -54 60 c-29 33
-73 75 -97 93 l-44 34 34 43 34 43 -21 27 c-12 15 -24 28 -27 28 -3 1 -29 -20
-57 -46z m-178 -100 c33 -8 62 -16 63 -18 2 -2 -19 -36 -46 -77 -27 -40 -77
-125 -110 -189 l-62 -115 -178 -102 c-210 -121 -279 -151 -345 -152 -122 0
-205 105 -178 229 18 84 58 151 140 231 181 179 468 256 716 193z m244 -139
l65 -67 -90 -32 c-49 -18 -107 -39 -128 -49 -22 -9 -41 -15 -43 -13 -11 11
105 227 122 227 5 0 38 -30 74 -66z m-863 -1002 c15 -8 9 -13 -36 -26 -122
-36 -250 -4 -150 38 22 9 165 0 186 -12z m765 -303 c20 -10 62 -46 92 -80 l56
-62 -81 -91 c-163 -183 -157 -177 -177 -166 -32 17 -113 113 -134 159 -25 56
-20 148 9 188 59 79 144 98 235 52z m244 -301 c29 -66 92 -250 109 -320 l6
-27 -47 20 c-99 41 -308 155 -308 167 0 11 191 232 201 232 3 0 20 -33 39 -72z"/>
<path d="M10820 8086 l0 -146 65 0 c117 0 176 43 182 132 7 99 -48 148 -174
156 l-73 5 0 -147z m169 89 c62 -52 48 -171 -23 -200 -20 -8 -51 -15 -71 -15
l-35 0 0 120 0 120 49 0 c38 0 56 -6 80 -25z"/>
<path d="M11160 8086 c0 -139 1 -146 20 -146 19 0 20 7 20 131 l0 130 33 -3
c29 -3 32 -6 35 -41 3 -35 0 -39 -27 -50 -37 -14 -40 -24 -8 -29 16 -2 30 -19
49 -58 14 -30 31 -61 37 -67 14 -15 61 -17 61 -3 0 6 -6 10 -14 10 -7 0 -24
25 -36 55 -12 31 -30 60 -39 65 -14 8 -14 10 3 23 26 19 25 72 -2 99 -14 15
-38 23 -76 26 l-56 4 0 -146z"/>
<path d="M11462 8093 c-29 -76 -52 -141 -52 -145 0 -5 9 -8 19 -8 15 0 24 15
41 65 21 65 22 65 59 65 37 0 38 -1 60 -65 20 -55 27 -65 47 -65 l24 0 -19 48
c-10 26 -35 91 -56 145 -26 68 -42 97 -54 97 -12 0 -30 -37 -69 -137z m88 10
c0 -7 -11 -13 -25 -13 -28 0 -30 4 -13 51 l12 34 12 -30 c7 -17 13 -36 14 -42z"/>
<path d="M11680 8218 c0 -30 108 -273 120 -273 8 0 27 33 43 72 16 40 32 71
36 68 4 -2 20 -36 35 -74 15 -39 33 -71 40 -71 7 0 35 57 64 128 72 178 69
164 42 160 -20 -3 -29 -19 -61 -113 l-37 -110 -16 37 c-8 20 -29 69 -45 110
-22 57 -34 74 -51 76 -16 3 -21 0 -18 -10 32 -85 32 -82 7 -146 -13 -34 -27
-62 -30 -62 -3 0 -25 50 -49 110 -33 85 -47 110 -62 110 -10 0 -18 -6 -18 -12z"/>
<path d="M12270 8135 c0 -151 29 -195 128 -195 70 0 102 29 102 93 0 24 3 78
6 120 7 75 6 77 -15 77 -22 0 -22 -3 -20 -112 2 -110 2 -111 -25 -135 -35 -29
-68 -29 -103 1 -27 23 -28 28 -31 135 -4 101 -6 111 -23 111 -17 0 -19 -9 -19
-95z"/>
<path d="M12740 8085 c0 -138 1 -145 20 -145 19 0 20 7 20 145 0 138 -1 145
-20 145 -19 0 -20 -7 -20 -145z"/>
<path d="M12896 8199 c-3 -17 -6 -83 -6 -145 0 -103 2 -114 18 -114 16 0 18 8
14 88 -7 138 -8 138 91 18 48 -58 91 -106 96 -106 8 0 21 148 21 243 0 41 -3
47 -21 47 -21 0 -21 -2 -14 -112 4 -74 3 -110 -3 -103 -5 6 -47 55 -92 110
-45 55 -85 101 -90 103 -4 1 -10 -11 -14 -29z"/>
<path d="M13200 8211 c0 -16 6 -17 50 -13 l50 5 0 -132 c0 -124 1 -131 20
-131 19 0 20 7 20 131 l0 132 50 -5 c44 -4 50 -3 50 13 0 17 -10 19 -120 19
-110 0 -120 -2 -120 -19z"/>
<path d="M13510 8085 l0 -145 70 0 c58 0 70 3 70 16 0 14 -8 16 -50 11 l-50
-6 0 61 0 61 45 -6 c36 -5 45 -4 45 8 0 11 -12 15 -45 15 l-45 0 0 51 0 51 45
-4 c38 -3 45 0 45 14 0 15 -10 18 -65 18 l-65 0 0 -145z"/>
<path d="M13740 8085 c0 -138 1 -145 20 -145 18 0 20 7 20 70 0 61 2 70 18 70
24 0 49 -27 63 -71 16 -46 37 -69 66 -69 28 0 30 11 4 27 -11 7 -22 26 -26 42
-3 17 -16 42 -27 56 -19 24 -19 27 -4 44 18 20 21 53 6 81 -12 22 -60 40 -106
40 l-34 0 0 -145z m105 81 c8 -24 6 -31 -14 -47 -39 -32 -51 -25 -51 32 0 49
1 50 27 47 20 -2 30 -11 38 -32z"/>
<path d="M14010 8085 c0 -138 1 -145 20 -145 19 0 20 7 20 145 0 138 -1 145
-20 145 -19 0 -20 -7 -20 -145z"/>
<path d="M14212 8210 c-21 -13 -41 -38 -53 -66 -29 -64 -19 -117 31 -166 35
-35 42 -38 96 -38 97 0 154 54 154 147 0 110 -132 181 -228 123z m122 -12 c73
-33 85 -166 19 -217 -36 -29 -93 -28 -126 3 -32 29 -41 63 -34 122 9 81 74
123 141 92z"/>
<path d="M14530 8086 c0 -139 1 -146 20 -146 19 0 20 7 20 131 l0 130 33 -3
c29 -3 32 -6 35 -41 3 -35 0 -39 -27 -50 -35 -13 -41 -27 -11 -27 22 0 60 -53
60 -82 0 -27 37 -58 68 -58 24 1 25 2 10 14 -10 7 -27 35 -38 62 -12 27 -28
54 -37 61 -14 11 -14 13 1 28 22 22 21 78 -3 99 -11 10 -43 20 -75 23 l-56 6
0 -147z"/>
<path d="M14992 8212 c-48 -26 -72 -68 -72 -127 0 -98 54 -145 164 -145 56 0
67 3 76 21 16 28 8 32 -26 14 -47 -24 -99 -19 -135 13 -60 54 -48 171 21 207
37 19 67 19 104 0 36 -19 36 -19 36 4 0 35 -111 43 -168 13z"/>
<path d="M15303 8214 c-46 -23 -73 -71 -73 -130 0 -90 55 -144 145 -144 90 0
145 54 145 144 0 60 -27 108 -74 130 -43 20 -102 20 -143 0z m111 -14 c43 -16
68 -66 63 -129 -3 -46 -9 -59 -36 -83 -68 -60 -160 -18 -168 78 -9 101 59 165
141 134z"/>
<path d="M15584 7975 c-8 -20 4 -35 27 -35 14 0 19 7 19 25 0 18 -5 25 -20 25
-11 0 -23 -7 -26 -15z"/>
</g>
</svg>
